<svg id="Capa_1" xmlns="http://www.w3.org/2000/svg" version="1.1" viewBox="0 0 82.76 104">
  
  <path d="M68.04,33.36c11.32-12.74,17-19.13,13.88-26.22-3.14-7.13-11.65-7.13-28.61-7.13h-23.84C12.5,0,3.98,0,.85,7.14c-3.12,7.09,2.56,13.49,13.88,26.22l22.65,25.49v37.15h-14.67c-2.21,0-4,1.79-4,4s1.79,4,4,4h37.33c2.21,0,4-1.79,4-4s-1.79-4-4-4h-14.67v-37.15l22.66-25.5ZM20.71,28.05c-7.59-8.55-13.59-15.29-12.54-17.69,1.04-2.35,9.97-2.35,21.29-2.35h23.84c11.32,0,20.25,0,21.29,2.36,1.05,2.4-4.94,9.14-12.54,17.69l-20.67,23.26-20.67-23.26Z"></path>
</svg>